<?xml version="1.0" encoding="UTF-8"?>
<!DOCTYPE svg PUBLIC "-//W3C//DTD SVG 1.0//EN" "http://www.w3.org/TR/2001/REC-SVG-20010904/DTD/svg10.dtd">
<!-- Creator: CorelDRAW 2017 -->
<svg xmlns="http://www.w3.org/2000/svg" xml:space="preserve" width="356px" height="200px" version="1.0" style="shape-rendering:geometricPrecision; text-rendering:geometricPrecision; image-rendering:optimizeQuality; fill-rule:evenodd; clip-rule:evenodd"
viewBox="0 0 35600 20025"
 xmlns:xlink="http://www.w3.org/1999/xlink">
 <defs>
  <style type="text/css">
   <![CDATA[
    .fil3 {fill:#96295D}
    .fil0 {fill:#E6E7E8}
    .fil5 {fill:#1B53A1;fill-rule:nonzero}
    .fil4 {fill:#606062;fill-rule:nonzero}
    .fil1 {fill:#373435;fill-opacity:0.031373}
    .fil2 {fill:#373435;fill-opacity:0.078431}
   ]]>
  </style>
 </defs>
 <g id="Layer_x0020_1">
  <metadata id="CorelCorpID_0Corel-Layer"/>
  <g id="_3131183161200">
   <path class="fil0" d="M0 0l35600 0 0 20025 -35600 0 0 -20025z"/>
   <path class="fil1" d="M2082 17547c68,103 112,202 155,312 32,64 49,183 199,183 44,0 107,-14 163,-45 63,-33 111,-83 136,-159l60 -202 146 -72 10 10c-20,76 -25,149 -25,206 0,169 146,233 262,233 68,0 129,-33 129,-95 0,-80 -34,-216 -78,-338 68,-68 136,-136 214,-191l12 6c34,144 53,286 53,381 0,93 -41,196 -75,264 -70,132 -194,237 -344,237 -114,0 -241,-57 -328,-163l-5 0c-82,102 -209,194 -412,194l-63 0c-10,134 -39,229 -83,314 -121,237 -480,404 -818,404 -470,0 -706,-272 -706,-633 0,-223 73,-431 185,-578l92 38c-70,134 -117,261 -117,385 0,338 275,499 592,499 294,0 658,-187 724,-404 -25,-237 -114,-349 -250,-565 41,-72 94,-144 160,-221l12 0 0 0zm5421 -1274c99,62 196,136 291,220 -53,75 -119,143 -201,203 -95,-77 -190,-143 -287,-213 66,-74 131,-146 197,-210l0 0zm51 926c-160,0 -291,105 -291,183 0,167 320,219 703,217 -48,-196 -216,-400 -412,-400zm-359 895c208,0 390,-6 529,-41 155,-40 286,-118 286,-172 0,-14 0,-31 -5,-45 -87,8 -187,8 -274,8 -282,0 -498,-64 -583,-222 -21,-44 -36,-93 -36,-149 0,-153 66,-303 182,-406 97,-85 204,-138 313,-138 197,0 354,158 464,408 60,136 101,293 101,491 0,132 -36,243 -118,326 -153,148 -435,204 -867,204l-196 0 0 0 -51 0c-107,0 -184,-19 -245,-66l-10 0c3,25 5,49 5,72 0,97 -32,221 -97,320 -192,286 -400,410 -580,410 -182,0 -405,-70 -606,-161l36 -70c65,27 155,45 279,45 325,0 752,-313 805,-618 -12,-25 -34,-58 -65,-93 -95,-113 -155,-208 -211,-307 48,-95 92,-171 133,-240l17 -2c139,283 265,446 546,446l44 0 0 0 204 0 0 0zm-1408 299c24,-130 26,-276 26,-413l0 -202c0,-377 -48,-926 -87,-1283 68,-74 163,-160 238,-218l22 6c51,450 63,971 63,1452 0,126 -5,249 -17,340 -7,114 -73,200 -214,332l-31 -14zm-1449 -596c7,177 94,317 398,317 189,0 349,-49 526,-134 32,-14 49,-33 49,-49 0,-111 -85,-258 -228,-392 -139,-126 -323,-237 -495,-311 -59,-25 -78,-52 -78,-77 0,-51 68,-158 124,-235l19 -2c197,103 417,256 580,427 148,157 240,316 240,489 0,128 -39,249 -102,361 -216,109 -446,192 -674,192 -277,0 -466,-130 -466,-436 0,-33 0,-84 12,-150l95 0 0 0zm-501 -503l172 278c63,103 122,215 122,392l0 227c0,183 -117,379 -306,573 -148,132 -279,188 -400,188 -180,0 -386,-56 -624,-159l27 -70c75,20 162,37 269,37 342,-2 692,-252 852,-557 19,-35 26,-68 26,-91 0,-35 -19,-74 -34,-109 -87,-165 -184,-315 -291,-454 56,-88 112,-173 173,-257l14 2 0 0z"/>
   <path class="fil2" d="M26188 4114l-878 1092 51 0 16 0 1358 -1689 0 52 0 53 -1 52 0 53 0 52 0 52 0 53 1 52 1 10 1 10 3 10 2 10 4 10 4 9 5 9 5 9 56 79 56 80 55 79 57 80 56 80 57 81 58 81 58 83 -441 548 0 2 1 0 880 -1094 60 0 59 0 58 0 57 0 55 0 56 0 54 0 55 0 -880 1094 46 0 83 0 84 0 83 0 84 0 83 0 83 0 84 0 83 0 84 0 83 0 -2146 2668 2585 0 2 1120 -1016 1263 791 0 -313 3738 -1878 2335 3043 -847 -3651 4542 -2363 0 -493 0 -1349 0 -850 0 -274 0 -1 0 -515 0 -903 0 -193 0 -420 0 -226 0 -161 0 -1077 0 -105 0 -403 0 -470 0 -244 0 -16 0 -46 0 -103 0 -87 0 -66 0 -5 0 -95 0 -14 0 -61 0 -126 0 -2 0 -1 0 -236 0 -205 0 -142 0 -371 0 -16 0 -86 0 -338 0 -66 0 -435 0 -10 0 -8 0 -87 0 -80 0 -79 0 -189 0 -165 0 -346 0 -86 0 -50 0 -64 0 -86 0 -155 0 -54 0 -55 0 -116 0 -163 0 -23 0 -153 0 -32 0 -58 0 -102 0 -134 0 -5 0 -22 0 -12 0 0 0 0 0 -419 0 -1 0 -7 0 -89 0 -107 0 -158 0 -13 0 -174 0 -57 0 -216 0 -222 0 -19 0 -24 0 -120 0 -51 0 -169 0 -2 0 -170 0 -1 0 -8 0 -2 0 -87 0 -13 0 -25 0 -106 0 -368 0 -23 0 -25 0 -185 0 -24 0 -240 0 -164 0 -1 0 -156 0 -46 0 -87 0 -6 0 -36 0 -185 0 -58 0 -57 0 -159 0 -4 0 -151 0 -3 0 -3 0 -1 0 -11 0 -73 0 -54 0 -70 0 -1 0 -79 0 -89 0 -64 0 -77 0 -27 0 -412 0 -38 0 -203 0 -138 0 -36 0 -64 0 -14 0 -9 0 -38 0 -38 0 -67 0 -83 0 -158 0 -170 0 -9 0 -102 0 -41 0 -192 0 -97 0 -27 0 -33 0 -34 0 -45 0 -58 0 -2 0 -188 0 -52 0 -1 0 -2 0 -146 0 -83 0 -5 0 -171 0 -124 0 -167 0 -53 0 -92 0 -264 0 -15 0 -2 0 -39 0 -1 0 -7 0 -170 0 -153 0 -382 0 -2 0 -94 0 -51 0 -80 0 -1 0 -551 0 -300 0 -5 0 -174 0 -356 0 0 -112 0 -96 0 -461 0 -1100 0 -51 0 -168 0 -33 0 -52 0 -132 0 -1 0 -869 0 -24 0 -96 0 -30 0 -14 0 -19 0 -1 0 -16 0 -210 0 -739 0 0 0 -438 0 -65 0 -133 0 -70 0 -1 6253 -7777 -10 14 -39 53 -39 54 -38 54 -38 55 -37 55 -36 55 -35 56 -35 56 -25 43 -24 44 -24 45 -23 45 -23 46 -22 47 -22 46 -21 46 -7 17 -8 17 -7 16 -7 16 -6 16 -7 17 -6 17 -6 17 -25 74 -24 73 -23 74 -21 74 -17 76 -14 77 -9 78 -3 81 0 0 2 86 4 79 7 72 12 69 15 68 20 69 26 73 30 79 8 17 7 17 7 17 8 16 8 16 7 17 8 16 9 17 2 5 1 4 1 2 1508 -1876 187 -212 24 -25 24 -26 23 -26 23 -26 24 -25 25 -25 26 -24 27 -23 30 -25 32 -28 34 -30 34 -32 35 -33 35 -32 35 -31 35 -29 6 -5 7 -5 8 -6 7 -5 7 -6 7 -6 7 -6 7 -6 72 -61 79 -62 85 -65 90 -65 94 -66 97 -66 100 -65 100 -65 101 -63 101 -62 99 -59 97 -57 93 -53 89 -50 84 -45 78 -42 191 -104 10 -5 8 -4 8 -4 8 -4 8 -4 9 -4 8 -4 9 -5 34 -17 34 -17 34 -18 34 -17 34 -18 34 -16 34 -17 33 -15 113 -50 111 -48 109 -47 108 -46 108 -43 107 -43 107 -40 107 -39 109 -38 109 -36 111 -34 112 -33 115 -30 117 -30 121 -27 123 -26 128 -24 131 -22 135 -19 136 -16 139 -13 139 -10 140 -6 140 -1 139 2 137 7 136 12 132 17 129 23 124 28 120 35 114 40 35 14 35 14 34 15 35 15 33 16 33 17 33 18 32 20 174 130 7 5 6 6 7 6 6 7 7 6 6 7 6 7 6 8 36 48 32 47 28 48 25 48 21 50 18 53 15 57 13 61 13 106 4 106 -6 105 -14 105 -22 103 -28 101 -35 100 -40 98 -45 95 -48 92 -52 88 -54 86 -55 81 -56 77 -56 73 -1528 1900 59 -19 72 -23 72 -24 71 -24 72 -25 72 -26 73 -26 99 -38 99 -42 98 -47 97 -51 96 -53 93 -56 91 -57 88 -57 51 -35 49 -35 48 -36 48 -37 48 -38 47 -38 48 -37 47 -38 21 -17 19 -17 20 -18 18 -19 19 -19 19 -18 19 -18 19 -17 33 -29 37 -34 39 -38 39 -40 38 -40 36 -40 33 -38 29 -35 -2400 2984 0 3 -11 50 -13 50 -14 52 -15 53 -26 88 -26 90 -27 89 -29 90 -29 89 -30 88 -30 88 -32 86 -429 1093 -5 12 -5 10 -4 9 -5 10 -4 9 -4 9 -5 10 -5 11 -18 41 -28 57 -35 67 -41 70 -44 67 -45 56 -663 825 24 26 11 10 3770 -4688 -20 27 -15 30 -12 33 -8 35 -8 37 -9 38 -5 19 -5 19 -5 18 -4 18 -5 18 -5 18 -5 18 -5 20 -6 19 -5 19 -6 17 -5 18 -5 17 -6 17 -6 17 -6 18 -6 18 -6 17 -7 16 -7 17 -7 16 -7 17 -7 16 -6 17 -284 654 -44 95 -43 97 -43 97 -42 97 -42 97 -42 97 -43 97 -45 96 -231 518 -7 15 -8 15 -7 16 -8 16 -7 16 -8 16 -7 15 1168 -1452 8 7 6 8 4 9 2 9 1 11 1 11 1 14 3 14 38 180 38 157 42 141 31 91 1875 -2332 -11 18 -10 22 -10 28 -15 50 -16 49 -14 48 -14 49 -14 49 -12 50 -13 51 -11 52 -38 133 -58 147 -72 158 -81 163 -87 163 -87 158 -82 148 -72 133 -30 55 -33 59 -35 63 -37 65 -37 64 -37 62 -36 59 -34 52 -9 14 -12 19 -15 23 -15 25 -15 26 -13 23 -9 20 -6 14 -510 634 4 9 4 11 4 10 5 11 5 10 6 9 6 9 -8 12 -8 11 -8 12 -9 12 -8 12 -9 12 -8 12 -9 12 -997 1240 -31 50 -29 59 -20 61 -10 62 4 59 7 19 2764 -3439 11 -10 1 19 2 21 4 23 5 24 5 24 5 22 5 21 3 18 18 83 19 82 20 83 23 81 24 81 27 80 28 79 12 30 6123 -7616 0 106 0 106 0 106 0 106 0 105 0 106 0 106 0 105 0 105 0 106 0 105 0 105 0 50 598 -743 97 0 97 0 98 0 98 0 98 0 98 0 100 0 100 0 -896 1115 31 0 78 0 1358 -1689 -1 56 -1 56 -1 56 -1 56 -1 56 0 56 -1 56 1 56 1 7 2 8 4 8 5 8 6 8 6 8 6 8 5 7 50 71 50 71 51 71 50 71 50 71 50 72 50 71 51 71 4 6 4 6 5 7 4 7 5 7 5 8 6 9 6 10 -435 541 0 9 10 0 878 -1092 56 0 55 0 54 0 54 0 54 0 54 0 54 0 54 0zm1919 569l0 0z"/>
   <g>
    <path class="fil3" d="M7461 14976c-137,0 -234,-8 -329,-106 -56,-58 -91,-181 -91,-292 0,-269 124,-537 262,-744 31,-46 185,-244 227,-280l198 -177c393,-316 533,-410 961,-687l319 -188c8,99 77,243 77,561 0,273 -54,499 -148,735 -92,231 -197,360 -339,543 -67,87 -188,200 -276,270 -22,17 -38,31 -62,47 -213,144 -494,318 -799,318l0 0zm4584 -1998c0,-20 12,-2 5,0 0,0 -5,21 -5,0zm2350 538c-18,0 -9,-2 -31,-7 26,-50 187,-220 244,-280l529 -634c0,334 -216,588 -466,776 -56,41 -194,146 -276,146l0 -1zm2210 -523c-9,-37 -16,-14 -16,-70 0,-118 131,-397 193,-518 14,-28 22,-37 38,-63 78,-127 93,-133 172,-234 33,-43 66,-66 97,-106 9,-14 95,-92 109,-102 19,40 47,174 47,234 0,391 -189,656 -505,807 -40,20 -92,42 -135,52l0 0zm-5442 492c-113,0 -164,-229 -179,-337 -23,-161 -30,-421 -5,-596 6,-44 8,-77 14,-118 19,-129 57,-297 97,-420 6,-18 7,-28 14,-47 6,-19 14,-36 19,-52 82,-248 261,-570 397,-774 301,-448 704,-542 704,-372 0,164 -33,278 -74,424 -67,235 -144,481 -229,708l-429 1093c-13,33 -24,49 -37,80 -32,80 -197,411 -292,411zm-5591 -4614c0,244 27,374 116,595 20,48 39,87 62,133 6,13 7,20 13,33 100,198 226,391 373,556l91 105c29,36 66,63 97,98l509 467 555 421c40,29 74,54 114,81l631 439c20,14 39,24 60,41 112,84 228,162 336,250 24,19 91,73 104,91 -24,6 -76,38 -104,52 -381,189 -748,406 -1102,640 -173,114 -442,309 -584,446l-125 117c-109,110 -206,206 -300,333 -140,187 -241,416 -299,653 -68,277 -50,606 58,863 77,184 192,345 359,446 59,35 130,56 201,72 116,23 232,49 350,48 54,-1 76,8 132,8 183,0 380,-31 552,-73 88,-23 163,-46 238,-75 253,-93 498,-227 704,-397 321,-265 592,-572 758,-974 65,-155 116,-305 156,-471 116,-492 103,-1152 -135,-1602 182,-96 361,-209 539,-312 57,-33 282,-167 335,-179l-41 122c-63,229 -117,464 -139,705 -27,319 -39,536 40,859 19,77 35,146 59,221 25,75 49,133 78,203 68,165 193,400 357,487 100,53 208,57 325,57 173,0 315,-120 391,-218 44,-58 86,-115 122,-183l252 -505c85,-164 143,-339 220,-506 1,-2 2,-4 3,-6l12 -19c0,96 -31,237 -31,430 0,242 27,580 215,721 149,113 318,87 464,-18 230,-167 372,-425 502,-669l62 -111c11,-19 16,-31 27,-51l91 -166c20,-42 38,-68 57,-107l172 -335c224,-402 507,-1066 686,-1493 19,-44 32,-81 50,-121 32,-73 76,-167 94,-242 27,18 17,42 26,83 101,516 195,718 420,1173 11,23 20,58 38,79 -21,31 -43,63 -67,95l-688 851c-105,121 -215,249 -305,382 -98,145 -163,340 30,452 216,124 690,14 878,-58 89,-34 178,-68 259,-109 784,-392 928,-1022 604,-1793 -15,-34 -20,-38 1,-69l133 -195c30,-44 54,-82 83,-128l626 -1091c17,-35 51,-121 78,-141 0,47 22,128 30,172 45,221 105,442 190,647 34,81 191,385 202,430 -29,8 -20,10 -42,29 -275,237 -618,609 -756,954 -78,196 -197,581 -24,776 194,218 468,94 690,14 120,-42 232,-101 342,-165 65,-37 141,-89 198,-138 118,-104 243,-207 332,-339 197,-291 220,-546 136,-883l-60 -198c-10,-25 -17,-35 -20,-65 63,-30 142,-52 214,-75 75,-25 154,-45 235,-62 444,-87 990,-78 1422,30 314,79 576,193 806,397 150,133 261,282 338,473 98,244 93,509 -53,731 -181,276 -432,333 -432,419 0,73 68,62 117,62 76,0 246,-101 300,-137 46,-32 81,-63 122,-96 43,-34 72,-71 107,-112 389,-447 251,-1110 -72,-1542 -18,-24 -34,-42 -51,-65 -178,-230 -479,-427 -739,-541 -749,-326 -1800,-235 -2486,128 -42,-82 -83,-168 -124,-251 -42,-83 -86,-164 -121,-254 -19,-48 -37,-90 -50,-138 -14,-54 -19,-97 -28,-158 -9,-60 -14,-105 -23,-166 -39,-284 30,-562 117,-825 30,-89 103,-202 43,-286 -124,-172 -687,-91 -832,-35 -79,31 -98,44 -125,126 -43,133 -79,257 -109,398 -71,328 -401,873 -577,1203 -74,137 -192,348 -279,479 -18,27 -87,136 -94,164 -33,-25 -81,-148 -104,-193 -73,-145 -116,-297 -136,-464 -49,-401 -16,-568 107,-937 43,-130 99,-217 34,-282 -92,-94 -237,-99 -369,-99 -171,0 -328,13 -478,75 -106,44 -109,140 -134,242 -14,53 -24,94 -39,148 -15,53 -28,94 -45,142 -15,47 -36,89 -53,134l-284 654c-119,254 -224,518 -344,773l-231 518c-19,40 -40,83 -60,127l-177 386c-67,132 -204,437 -290,553 -14,21 -25,35 -51,42 -72,-307 95,-862 169,-1159 34,-139 229,-817 229,-894 0,-225 -286,-281 -397,-242 -50,18 -91,57 -134,86 87,-373 55,-1000 -452,-1000 -390,0 -720,246 -971,459 -19,15 -25,17 -43,35 -26,25 -46,50 -75,73 -40,31 -140,140 -176,184l-101 124c-62,82 -71,81 -162,127l-617 336c-21,11 -30,18 -50,29 -32,16 -58,32 -91,49l-192 104c-80,44 -425,247 -482,260 -79,-53 -230,-236 -332,-315 -20,-15 -25,-23 -41,-38 -157,-139 -329,-266 -492,-397 -183,-146 -375,-281 -553,-431 -31,-26 -53,-46 -86,-71l-341 -307c-314,-315 -607,-719 -607,-1189 0,-532 156,-856 434,-1260 29,-41 54,-72 85,-111l187 -212c66,-66 121,-141 196,-200 78,-60 178,-168 270,-240 17,-13 38,-29 56,-45 364,-318 1062,-739 1459,-946l191 -104c26,-13 43,-21 68,-34 91,-45 182,-95 271,-135 607,-270 1118,-476 1787,-610 670,-134 1525,-181 2119,53 94,37 185,75 270,129l174 130c18,14 35,32 51,52 102,131 158,242 188,412 100,566 -257,1136 -550,1483 -69,82 -166,202 -247,269 -25,21 -34,27 -58,51l-160 144c-98,83 -195,159 -302,229 -169,112 -336,218 -519,309 -396,199 -783,339 -1227,436 -553,122 -1174,164 -1700,-63 -160,-69 -287,-164 -406,-281 -52,-53 -117,-146 -190,-78 -111,105 126,427 210,511 60,59 111,107 178,158 128,99 283,183 438,240 688,256 1733,135 2422,-66 201,-58 384,-123 580,-193 264,-93 531,-248 761,-401 136,-90 259,-194 386,-294 55,-43 103,-100 154,-143 84,-70 215,-207 284,-294 144,-186 293,-361 406,-569 123,-225 220,-423 295,-674 29,-100 57,-213 72,-318 10,-61 12,-110 22,-174l3 -361c-6,-55 -14,-116 -23,-172 -35,-206 -102,-399 -211,-570 -515,-801 -1656,-1016 -2552,-1016 -645,0 -1289,116 -1887,315 -48,16 -87,29 -134,45l-666 256c-88,36 -173,74 -258,109l-189 84c-177,86 -395,175 -556,271 -116,70 -238,126 -354,193 -39,23 -79,44 -120,68 -80,49 -155,90 -234,141 -76,49 -151,93 -225,142 -71,48 -150,95 -219,147l-214 153c-36,26 -69,49 -103,77l-453 375c-20,19 -31,23 -51,42 -65,63 -124,116 -187,180 -56,55 -141,131 -186,189 -37,50 -89,94 -130,143l-123 149c-30,39 -55,68 -83,105 -106,142 -205,287 -297,438 -67,113 -129,240 -184,362 -20,46 -38,86 -54,133 -67,197 -136,389 -136,607l0 0z"/>
    <g>
     <path class="fil4" d="M28107 4683c0,175 0,348 0,523 -445,0 -890,0 -1335,0 0,-181 0,-362 0,-550 149,0 291,0 441,0 -156,-221 -304,-431 -453,-643 -15,-21 -24,-52 -25,-77 -2,-140 0,-279 0,-419 456,0 912,0 1372,0 0,199 0,397 0,595 -145,0 -291,0 -454,0 160,201 307,386 454,571l0 0z"/>
     <path class="fil4" d="M26188 5206c-441,0 -882,0 -1323,0 0,-181 0,-362 0,-550 146,0 286,0 435,0 -17,-28 -28,-44 -39,-60 -134,-190 -268,-379 -402,-569 -14,-20 -35,-41 -35,-62 -1,-149 3,-298 5,-448 453,0 906,0 1359,0 0,198 0,395 0,597 -146,0 -284,0 -435,0 17,25 27,42 39,57 124,160 249,319 372,478 14,18 25,43 25,64 2,164 0,329 -1,493l0 0z"/>
     <path class="fil4" d="M24258 5206c-461,0 -922,0 -1384,0 0,-562 0,-1123 0,-1689 461,0 922,0 1384,0 0,189 0,379 0,574 -268,0 -527,0 -786,0 0,192 0,378 0,569 263,0 522,0 786,0 0,186 0,366 0,546l0 0z"/>
     <path class="fil5" d="M20954 6210l857 9277 3686 1020 3678 -1024 853 -9273 -9074 0 0 0zm5923 6903l154 -1595 -1540 0 -2643 0 -154 -1082 2787 -1333 -2788 -11 -227 -1218 3025 0 3055 0 2 1120 -2757 1263 2532 0 -313 3738 -2518 838 -1 -1 -2446 -897 -144 -1754 1182 0 103 876 1305 380 1 0 1385 -324 0 0z"/>
    </g>
   </g>
  </g>
 </g>
</svg>
